<svg id="ryan" viewBox="0 0 120 120" xmlns="http://www.w3.org/2000/svg">
  <style type="text/css">
    <![CDATA[
      @keyframes lookaway-up {
        from {
          transform: rotate3d(0.2, 0, -0.01, 20deg);
        }
        to {
          transform: rotate3d(0.2, -0.05, -0.01, 20deg);
        }
      }

      @keyframes lookaway-down {
        0% {
          transform: rotate3d(-0.2, 0, -0.01, 20deg);
        }
        100% {
          transform: rotate3d(-0.2, -0.05, 0.01, 20deg);
        }
      }

      .ears {
        transform-origin: 50% 50% 5px;
      }

      .eyes {
        transform-origin: 50% 50% -40px;
      }

      .muzzle {
        transform-origin: 50% 50% -44px;
      }

      .ears,
      .eyes,
      .muzzle {
        transition: transform 0.5s;
      }

      .focused {
        transition: transform 0.1s;
      }

      .look-away .ears,
      .look-away .eyes,
      .look-away .muzzle {
        transition-duration: 0.3s;
        animation: 3s infinite alternate;
      }

      .look-away.up .ears,
      .look-away.up .eyes,
      .look-away.up .muzzle {
        transform: rotate3d(0.2, 0, 0, 20deg) !important;
      }

      .look-away.down .ears,
      .look-away.down .eyes,
      .look-away.down .muzzle {
        transform: rotate3d(-0.2, 0, 0, 20deg) !important;
      }

      .look-away.playing.up .ears,
      .look-away.playing.up .eyes,
      .look-away.playing.up .muzzle {
        animation-name: lookaway-up;
      }

      .look-away.playing.down .ears,
      .look-away.playing.down .eyes,
      .look-away.playing.down .muzzle {
        animation-name: lookaway-down;
      }
    ]]>
  </style>
  <path d="M0,150 C0,65 120,65 120,150" fill="#e0a243" stroke="#000" stroke-width="2.5" />
  <g class="ears">
    <path d="M46,32 L46,30 C46,16 26,16 26,30 L26,32" fill="#e0a243" stroke="#000" stroke-width="2.5" stroke-linecap="round" transform="rotate(-10,38,24)" />
    <path d="M74,32 L74,30 C74,16 94,16 94,30 L94,32" fill="#e0a243" stroke="#000" stroke-width="2.5" stroke-linecap="round" transform="rotate(10,82,24)" />
  </g>
  <circle cx="60" cy="60" r="40" fill="#e0a243" stroke="#000" stroke-width="2.5" />
  <g class="eyes">
    <!-- left eye and eyebrow-->
    <line x1="37" x2="50" y1="46" y2="46" stroke="#000" stroke-width="3" stroke-linecap="round" />
    <circle cx="44" cy="55" r="3" fill="#000" />
    <!-- right eye and eyebrow -->
    <line x1="70" x2="83" y1="46" y2="46" stroke="#000" stroke-width="3" stroke-linecap="round" />
    <circle cx="76" cy="55" r="3" fill="#000" />
  </g>
  <g class="muzzle">
    <path d="M60,66 C58.5,61 49,63 49,69 C49,75 58,77 60,71 M60,66 C61.5,61 71,63 71,69 C71,75 62,77 60,71" fill="#fff" />
    <path d="M60,66 C58.5,61 49,63 49,69 C49,75 58,77 60,71 M60,66 C61.5,61 71,63 71,69 C71,75 62,77 60,71" fill="#fff" stroke="#000" stroke-width="2.5" stroke-linejoin="round" stroke-linecap="round" />
    <polygon points="59,63.5,60,63.4,61,63.5,60,65" fill="#000" stroke="#000" stroke-width="5" stroke-linejoin="round" />
  </g>
    <path d="M40,105 C10,140 110,140 80,105 L80,105 L70,111 L60,105 L50,111 L40,105" fill="#fff" />
</svg>